<?xml version="1.0" encoding="UTF-8"?>
<!DOCTYPE svg PUBLIC "-//W3C//DTD SVG 1.1//EN" "http://www.w3.org/Graphics/SVG/1.1/DTD/svg11.dtd">
<svg xmlns="http://www.w3.org/2000/svg" version="1.1" width="781px" height="593px" style="shape-rendering:geometricPrecision; text-rendering:geometricPrecision; image-rendering:optimizeQuality; fill-rule:evenodd; clip-rule:evenodd" xmlns:xlink="http://www.w3.org/1999/xlink">
<g><path style="opacity:0.901" fill="#f39890" d="M 622.5,372.5 C 622.667,313.499 622.5,254.499 622,195.5C 621.617,194.944 621.117,194.611 620.5,194.5C 620.167,194.5 619.833,194.5 619.5,194.5C 547.335,193.501 475.002,193.167 402.5,193.5C 402.5,200.167 402.5,206.833 402.5,213.5C 402.167,213.5 401.833,213.5 401.5,213.5C 394.5,213.5 387.5,213.5 380.5,213.5C 387.313,212.509 394.313,212.175 401.5,212.5C 401.188,205.578 401.521,198.744 402.5,192C 475.833,191.333 549.167,191.333 622.5,192C 623.833,252.264 623.833,312.431 622.5,372.5 Z"/></g>
<g><path style="opacity:1" fill="#f96c5d" d="M 619.5,194.5 C 619.833,194.5 620.167,194.5 620.5,194.5C 621.492,253.125 621.825,311.792 621.5,370.5C 615.833,370.5 610.167,370.5 604.5,370.5C 604.33,369.178 604.663,368.011 605.5,367C 609.356,366.823 613.023,366.323 616.5,365.5C 616.5,310.167 616.5,254.833 616.5,199.5C 616.5,198.833 616.167,198.5 615.5,198.5C 613.708,197.691 611.708,197.191 609.5,197C 575.833,196.833 542.167,196.667 508.5,196.5C 473.726,196.52 439.06,197.187 404.5,198.5C 404.36,196.876 405.027,195.71 406.5,195C 477.499,194.5 548.499,194.333 619.5,194.5 Z"/></g>
<g><path style="opacity:1" fill="#f36e61" d="M 619.5,194.5 C 548.499,194.333 477.499,194.5 406.5,195C 405.027,195.71 404.36,196.876 404.5,198.5C 439.06,197.187 473.726,196.52 508.5,196.5C 542.167,196.667 575.833,196.833 609.5,197C 611.708,197.191 613.708,197.691 615.5,198.5C 546.5,198.5 477.5,198.5 408.5,198.5C 408.5,203.5 408.5,208.5 408.5,213.5C 407.207,209.62 405.873,205.62 404.5,201.5C 403.833,205.647 403.166,209.647 402.5,213.5C 402.5,206.833 402.5,200.167 402.5,193.5C 475.002,193.167 547.335,193.501 619.5,194.5 Z"/></g>
<g><path style="opacity:0.218" fill="#ffbab2" d="M 615.5,198.5 C 616.167,198.5 616.5,198.833 616.5,199.5C 615.662,199.842 615.328,200.508 615.5,201.5C 547.047,199.509 478.381,198.842 409.5,199.5C 409.5,203.833 409.5,208.167 409.5,212.5C 473.669,212.168 537.669,212.501 601.5,213.5C 537.167,213.5 472.833,213.5 408.5,213.5C 408.5,208.5 408.5,203.5 408.5,198.5C 477.5,198.5 546.5,198.5 615.5,198.5 Z"/></g>
<g><path style="opacity:0.979" fill="#f38c83" d="M 620.5,194.5 C 621.117,194.611 621.617,194.944 622,195.5C 622.5,254.499 622.667,313.499 622.5,372.5C 615.5,372.5 608.5,372.5 601.5,372.5C 601.5,370.167 601.5,367.833 601.5,365.5C 601.5,314.833 601.5,264.167 601.5,213.5C 602.499,263.997 602.832,314.664 602.5,365.5C 606.167,365.5 609.833,365.5 613.5,365.5C 614.5,365.5 615.5,365.5 616.5,365.5C 613.023,366.323 609.356,366.823 605.5,367C 604.663,368.011 604.33,369.178 604.5,370.5C 610.167,370.5 615.833,370.5 621.5,370.5C 621.825,311.792 621.492,253.125 620.5,194.5 Z"/></g>
<g><path style="opacity:1" fill="#fd6a5a" d="M 408.5,213.5 C 470.001,214.167 531.668,214.833 593.5,215.5C 593.709,216.086 594.043,216.586 594.5,217C 525.308,218.33 455.975,218.997 386.5,219C 385.511,231.754 385.178,244.587 385.5,257.5C 384.458,258.791 383.292,258.791 382,257.5C 381.333,243.5 381.333,229.5 382,215.5C 388.599,214.85 395.099,214.184 401.5,213.5C 401.833,213.5 402.167,213.5 402.5,213.5C 403.166,209.647 403.833,205.647 404.5,201.5C 405.873,205.62 407.207,209.62 408.5,213.5 Z"/></g>
<g><path style="opacity:1" fill="#f27568" d="M 408.5,213.5 C 472.833,213.5 537.167,213.5 601.5,213.5C 601.5,264.167 601.5,314.833 601.5,365.5C 600.501,315.669 600.168,265.669 600.5,215.5C 598.833,215.5 597.167,215.5 595.5,215.5C 595.5,216.833 595.5,218.167 595.5,219.5C 526.166,219.333 456.833,219.5 387.5,220C 386.511,232.42 386.178,244.92 386.5,257.5C 386.167,257.5 385.833,257.5 385.5,257.5C 385.178,244.587 385.511,231.754 386.5,219C 455.975,218.997 525.308,218.33 594.5,217C 594.043,216.586 593.709,216.086 593.5,215.5C 531.668,214.833 470.001,214.167 408.5,213.5 Z"/></g>
<g><path style="opacity:0.717" fill="#f28d87" d="M 595.5,219.5 C 595.5,219.833 595.5,220.167 595.5,220.5C 594.167,220.5 592.833,220.5 591.5,220.5C 523.833,220.333 456.166,220.5 388.5,221C 387.511,234.087 387.177,247.254 387.5,260.5C 384.941,260.802 382.607,260.468 380.5,259.5C 383.082,259.975 385.082,259.308 386.5,257.5C 386.178,244.92 386.511,232.42 387.5,220C 456.833,219.5 526.166,219.333 595.5,219.5 Z"/></g>
<g><path style="opacity:1" fill="#fe6a5a" d="M 601.5,365.5 C 601.5,367.833 601.5,370.167 601.5,372.5C 600.566,373.568 600.232,374.901 600.5,376.5C 599.527,375.209 598.527,375.209 597.5,376.5C 596.833,324.002 596.167,271.668 595.5,219.5C 595.5,218.167 595.5,216.833 595.5,215.5C 597.167,215.5 598.833,215.5 600.5,215.5C 600.168,265.669 600.501,315.669 601.5,365.5 Z"/></g>
<g><path style="opacity:0.945" fill="#ef8b82" d="M 380.5,213.5 C 387.5,213.5 394.5,213.5 401.5,213.5C 395.099,214.184 388.599,214.85 382,215.5C 381.333,229.5 381.333,243.5 382,257.5C 383.292,258.791 384.458,258.791 385.5,257.5C 385.833,257.5 386.167,257.5 386.5,257.5C 385.082,259.308 383.082,259.975 380.5,259.5C 379.167,244.167 379.167,228.833 380.5,213.5 Z"/></g>
<g><path style="opacity:0.039" fill="#ffc9c8" d="M 616.5,199.5 C 616.5,254.833 616.5,310.167 616.5,365.5C 615.5,365.5 614.5,365.5 613.5,365.5C 615.489,311.049 616.156,256.383 615.5,201.5C 615.328,200.508 615.662,199.842 616.5,199.5 Z"/></g>
<g><path style="opacity:0.467" fill="#faa69e" d="M 591.5,220.5 C 592.833,220.5 594.167,220.5 595.5,220.5C 595.832,276.336 595.499,332.002 594.5,387.5C 594.672,386.508 594.338,385.842 593.5,385.5C 594.172,343.049 594.505,300.549 594.5,258C 594.333,246.5 594.167,235 594,223.5C 593.302,222.309 592.469,221.309 591.5,220.5 Z"/></g>
<g><path style="opacity:0.698" fill="#f39ab4" d="M 221.5,268.5 C 219.184,267.84 216.851,267.173 214.5,266.5C 212.547,267.156 210.547,267.489 208.5,267.5C 213.088,264.654 217.422,264.988 221.5,268.5 Z"/></g>
<g><path style="opacity:0.694" fill="#f889ab" d="M 410.5,268.5 C 415.65,267.349 420.984,267.183 426.5,268C 429.069,268.898 431.402,270.065 433.5,271.5C 430.107,271.938 427.107,271.105 424.5,269C 419.845,268.501 415.179,268.334 410.5,268.5 Z"/></g>
<g><path style="opacity:0.961" fill="#f68daf" d="M 538.5,266.5 C 540.288,265.378 542.288,265.211 544.5,266C 546.833,268.333 549.167,270.667 551.5,273C 553.345,274.128 555.345,274.628 557.5,274.5C 556.054,275.613 554.387,275.78 552.5,275C 549.354,272.688 546.354,270.188 543.5,267.5C 541.955,266.548 540.288,266.215 538.5,266.5 Z"/></g>
<g><path style="opacity:0.944" fill="#f186a5" d="M 485.5,271.5 C 480.733,270.434 475.9,269.768 471,269.5C 466.947,269.431 463.114,270.098 459.5,271.5C 462.786,268.404 466.786,267.071 471.5,267.5C 474.903,267.561 478.236,268.061 481.5,269C 483.32,269.2 484.653,270.034 485.5,271.5 Z"/></g>
<g><path style="opacity:1" fill="#fb4e89" d="M 221.5,268.5 C 222.496,268.414 223.329,268.748 224,269.5C 225.421,271.405 226.588,273.405 227.5,275.5C 227.427,277.027 228.094,278.027 229.5,278.5C 230.537,279.93 231.204,281.597 231.5,283.5C 231.5,284.833 231.5,286.167 231.5,287.5C 230.069,287.119 229.236,286.119 229,284.5C 227.866,288.14 226.866,287.807 226,283.5C 225.667,284.167 225.333,284.833 225,285.5C 224.691,284.234 224.191,283.067 223.5,282C 217.32,280.978 211.32,281.478 205.5,283.5C 202.119,282.409 200.452,280.075 200.5,276.5C 201.994,273.642 203.994,270.976 206.5,268.5C 206.842,267.662 207.508,267.328 208.5,267.5C 210.547,267.489 212.547,267.156 214.5,266.5C 216.851,267.173 219.184,267.84 221.5,268.5 Z"/></g>
<g><path style="opacity:1" fill="#fc4a89" d="M 410.5,268.5 C 415.179,268.334 419.845,268.501 424.5,269C 427.107,271.105 430.107,271.938 433.5,271.5C 433.232,273.099 433.566,274.432 434.5,275.5C 434.389,276.117 434.056,276.617 433.5,277C 426.795,277.305 420.128,276.805 413.5,275.5C 410.415,276.751 407.248,277.751 404,278.5C 401.855,278.604 400.021,277.937 398.5,276.5C 399.63,275.378 400.297,274.044 400.5,272.5C 404.07,271.713 407.403,270.38 410.5,268.5 Z"/></g>
<g><path style="opacity:0.804" fill="#f67ba0" d="M 328.5,292.5 C 328.737,291.209 328.404,290.209 327.5,289.5C 328.919,288.549 330.585,288.216 332.5,288.5C 333.167,286.167 333.833,283.833 334.5,281.5C 334.662,279.473 334.495,277.473 334,275.5C 332.933,274.809 331.766,274.309 330.5,274C 319.53,272.835 308.53,272.335 297.5,272.5C 299.634,270.967 302.134,270.3 305,270.5C 314.592,270.891 324.092,271.724 333.5,273C 338.583,281.277 336.916,287.777 328.5,292.5 Z"/></g>
<g><path style="opacity:0.929" fill="#f786ad" d="M 373.5,273.5 C 366.486,272.364 359.486,272.364 352.5,273.5C 359.516,269.659 366.516,269.659 373.5,273.5 Z"/></g>
<g><path style="opacity:1" fill="#f37fa2" d="M 410.5,268.5 C 407.403,270.38 404.07,271.713 400.5,272.5C 403.192,269.819 406.525,268.486 410.5,268.5 Z"/></g>
<g><path style="opacity:0.835" fill="#f9a3be" d="M 520.5,271.5 C 522.953,270.355 525.287,270.688 527.5,272.5C 525.139,272.326 522.806,271.993 520.5,271.5 Z"/></g>
<g><path style="opacity:0.855" fill="#f895b1" d="M 518.5,271.5 C 515.855,273.31 512.855,274.31 509.5,274.5C 512.084,272.528 515.084,271.528 518.5,271.5 Z"/></g>
<g><path style="opacity:1" fill="#fc5186" d="M 290.5,271.5 C 292.278,275.565 292.945,279.899 292.5,284.5C 291.094,286.474 289.594,288.474 288,290.5C 287.517,291.448 287.351,292.448 287.5,293.5C 283.842,294.128 281.342,292.794 280,289.5C 279.586,289.957 279.086,290.291 278.5,290.5C 276.773,289.134 275.106,287.8 273.5,286.5C 273.334,282.154 273.501,277.821 274,273.5C 275.417,272.922 276.25,271.922 276.5,270.5C 280.587,268.029 284.92,267.863 289.5,270C 290.056,270.383 290.389,270.883 290.5,271.5 Z"/></g>
<g><path style="opacity:1" fill="#fa4e87" d="M 538.5,266.5 C 540.288,266.215 541.955,266.548 543.5,267.5C 546.354,270.188 549.354,272.688 552.5,275C 554.387,275.78 556.054,275.613 557.5,274.5C 562.463,273.574 567.463,272.908 572.5,272.5C 574.262,273.262 575.262,274.596 575.5,276.5C 575.167,279.167 574.833,281.833 574.5,284.5C 573.5,285.167 572.5,285.833 571.5,286.5C 571.431,283.916 570.265,281.916 568,280.5C 561.513,282.557 554.846,283.89 548,284.5C 543.201,281.35 538.035,280.683 532.5,282.5C 532.81,279.287 532.477,276.287 531.5,273.5C 532.163,269.504 534.496,267.171 538.5,266.5 Z"/></g>
<g><path style="opacity:0.98" fill="#f681a7" d="M 572.5,272.5 C 567.463,272.908 562.463,273.574 557.5,274.5C 560.638,272.505 564.138,271.172 568,270.5C 569.728,270.899 571.228,271.566 572.5,272.5 Z"/></g>
<g><path style="opacity:1" fill="#fc4c86" d="M 518.5,271.5 C 519.167,271.5 519.833,271.5 520.5,271.5C 522.806,271.993 525.139,272.326 527.5,272.5C 528.167,275.5 528.833,278.5 529.5,281.5C 523.791,280.738 518.291,281.738 513,284.5C 510.566,283.678 508.066,283.344 505.5,283.5C 505.215,281.712 505.548,280.045 506.5,278.5C 507.984,277.533 508.984,276.2 509.5,274.5C 512.855,274.31 515.855,273.31 518.5,271.5 Z"/></g>
<g><path style="opacity:1" fill="#f7799f" d="M 206.5,268.5 C 203.994,270.976 201.994,273.642 200.5,276.5C 200.167,276.5 199.833,276.5 199.5,276.5C 200.45,272.587 202.783,269.92 206.5,268.5 Z"/></g>
<g><path style="opacity:1" fill="#fd4b87" d="M 297.5,272.5 C 308.53,272.335 319.53,272.835 330.5,274C 331.766,274.309 332.933,274.809 334,275.5C 334.495,277.473 334.662,279.473 334.5,281.5C 333.292,282.234 331.959,282.567 330.5,282.5C 330.167,286.5 329.833,286.5 329.5,282.5C 326.447,282.089 323.447,281.423 320.5,280.5C 312.302,281.369 304.302,282.036 296.5,282.5C 295.89,281.609 295.557,280.609 295.5,279.5C 295.4,276.892 296.067,274.558 297.5,272.5 Z"/></g>
<g><path style="opacity:1" fill="#fd4e83" d="M 400.5,272.5 C 400.297,274.044 399.63,275.378 398.5,276.5C 400.021,277.937 401.855,278.604 404,278.5C 407.248,277.751 410.415,276.751 413.5,275.5C 420.128,276.805 426.795,277.305 433.5,277C 434.056,276.617 434.389,276.117 434.5,275.5C 440.21,276.543 443.543,279.877 444.5,285.5C 445.72,287.282 446.386,289.282 446.5,291.5C 441.874,292.3 438.04,290.966 435,287.5C 433.383,288.536 433.216,289.703 434.5,291C 433.552,291.483 432.552,291.649 431.5,291.5C 430.486,290.326 429.153,289.66 427.5,289.5C 427.288,287.616 426.288,286.283 424.5,285.5C 420.878,284.341 417.211,284.175 413.5,285C 412.565,287.381 412.232,289.881 412.5,292.5C 412.631,293.239 412.464,293.906 412,294.5C 408.102,293.919 403.936,293.586 399.5,293.5C 399.649,294.552 399.483,295.552 399,296.5C 398.667,293.833 398.333,291.167 398,288.5C 397.617,287.944 397.117,287.611 396.5,287.5C 395.676,284.236 395.342,280.902 395.5,277.5C 396.167,274.833 397.833,273.167 400.5,272.5 Z"/></g>
<g><path style="opacity:1" fill="#fd4a87" d="M 485.5,271.5 C 487.667,275.34 488.001,279.34 486.5,283.5C 483.675,283.919 481.509,282.919 480,280.5C 474.123,280.855 468.457,281.855 463,283.5C 461.103,281.984 458.936,281.317 456.5,281.5C 456.5,280.5 456.5,279.5 456.5,278.5C 458.85,276.787 459.85,274.453 459.5,271.5C 463.114,270.098 466.947,269.431 471,269.5C 475.9,269.768 480.733,270.434 485.5,271.5 Z"/></g>
<g><path style="opacity:0.133" fill="#ffbecf" d="M 227.5,275.5 C 228.906,275.973 229.573,276.973 229.5,278.5C 228.094,278.027 227.427,277.027 227.5,275.5 Z"/></g>
<g><path style="opacity:1" fill="#f5729a" d="M 290.5,271.5 C 292.173,272.343 293.34,273.676 294,275.5C 294.422,273.574 295.589,272.574 297.5,272.5C 296.067,274.558 295.4,276.892 295.5,279.5C 294.566,280.568 294.232,281.901 294.5,283.5C 293.833,284.167 293.167,284.833 292.5,285.5C 292.5,285.167 292.5,284.833 292.5,284.5C 292.945,279.899 292.278,275.565 290.5,271.5 Z"/></g>
<g><path style="opacity:1" fill="#ef7e9a" d="M 485.5,271.5 C 489.24,274.599 490.407,278.599 489,283.5C 488.148,284.571 487.315,285.571 486.5,286.5C 486.5,285.5 486.5,284.5 486.5,283.5C 488.001,279.34 487.667,275.34 485.5,271.5 Z"/></g>
<g><path style="opacity:1" fill="#fc5180" d="M 509.5,274.5 C 508.984,276.2 507.984,277.533 506.5,278.5C 505.548,280.045 505.215,281.712 505.5,283.5C 508.066,283.344 510.566,283.678 513,284.5C 518.291,281.738 523.791,280.738 529.5,281.5C 528.551,283.737 527.884,286.071 527.5,288.5C 521.94,289.89 516.606,291.89 511.5,294.5C 506.35,293.349 501.016,293.183 495.5,294C 493.443,297.3 492.443,297.133 492.5,293.5C 494.771,291.388 496.104,288.721 496.5,285.5C 499.167,283.5 501.5,281.167 503.5,278.5C 505.147,276.674 507.147,275.34 509.5,274.5 Z"/></g>
<g><path style="opacity:0.982" fill="#f0829f" d="M 276.5,270.5 C 276.25,271.922 275.417,272.922 274,273.5C 273.501,277.821 273.334,282.154 273.5,286.5C 273.5,289.5 273.5,292.5 273.5,295.5C 273.167,295.5 272.833,295.5 272.5,295.5C 271.372,288.58 271.205,281.58 272,274.5C 272.748,272.249 274.248,270.916 276.5,270.5 Z"/></g>
<g><path style="opacity:1" fill="#fd4e80" d="M 334.5,281.5 C 333.833,283.833 333.167,286.167 332.5,288.5C 330.585,288.216 328.919,288.549 327.5,289.5C 326.596,290.209 326.263,291.209 326.5,292.5C 324.058,292.646 323.391,291.813 324.5,290C 322.926,289.301 321.593,289.635 320.5,291C 314.843,291.499 309.176,291.666 303.5,291.5C 303.649,290.448 303.483,289.448 303,288.5C 301.989,289.337 300.822,289.67 299.5,289.5C 299.5,288.167 299.5,286.833 299.5,285.5C 298.5,285.5 297.5,285.5 296.5,285.5C 296.5,284.5 296.5,283.5 296.5,282.5C 304.302,282.036 312.302,281.369 320.5,280.5C 323.447,281.423 326.447,282.089 329.5,282.5C 329.833,286.5 330.167,286.5 330.5,282.5C 331.959,282.567 333.292,282.234 334.5,281.5 Z"/></g>
<g><path style="opacity:0.678" fill="#f89db7" d="M 527.5,272.5 C 529.136,273.749 530.303,275.416 531,277.5C 531.49,276.207 531.657,274.873 531.5,273.5C 532.477,276.287 532.81,279.287 532.5,282.5C 532.5,283.167 532.5,283.833 532.5,284.5C 531.833,284.5 531.5,284.833 531.5,285.5C 529.57,285.771 528.236,286.771 527.5,288.5C 527.884,286.071 528.551,283.737 529.5,281.5C 528.833,278.5 528.167,275.5 527.5,272.5 Z"/></g>
<g><path style="opacity:1" fill="#fe4f80" d="M 199.5,276.5 C 199.833,276.5 200.167,276.5 200.5,276.5C 200.452,280.075 202.119,282.409 205.5,283.5C 211.32,281.478 217.32,280.978 223.5,282C 224.191,283.067 224.691,284.234 225,285.5C 225.333,284.833 225.667,284.167 226,283.5C 226.866,287.807 227.866,288.14 229,284.5C 229.236,286.119 230.069,287.119 231.5,287.5C 231.318,289.591 231.652,291.591 232.5,293.5C 229.634,294.208 226.8,294.875 224,295.5C 216.434,293.716 208.601,292.882 200.5,293C 199.624,291.414 198.624,289.914 197.5,288.5C 198.445,284.552 199.112,280.552 199.5,276.5 Z"/></g>
<g><path style="opacity:1" fill="#fc5180" d="M 378.5,276.5 C 383.39,279.411 386.39,283.745 387.5,289.5C 387.5,290.5 387.5,291.5 387.5,292.5C 385.8,292.626 384.3,293.293 383,294.5C 381.128,293.932 379.295,293.265 377.5,292.5C 375.833,293.833 374.167,295.167 372.5,296.5C 371.482,295.807 370.482,295.141 369.5,294.5C 368.781,292.236 368.448,289.903 368.5,287.5C 365.092,288.287 362.092,289.621 359.5,291.5C 359.167,291.5 358.833,291.5 358.5,291.5C 356.856,291.714 355.356,291.38 354,290.5C 353.508,291.549 353.674,292.549 354.5,293.5C 353.537,295.49 352.204,295.823 350.5,294.5C 350.709,293.914 351.043,293.414 351.5,293C 349.527,292.505 347.527,292.338 345.5,292.5C 345.799,294.604 345.466,296.604 344.5,298.5C 343.012,295.633 341.345,292.966 339.5,290.5C 339.5,289.167 339.5,287.833 339.5,286.5C 341.417,283.916 343.751,281.582 346.5,279.5C 346.586,280.496 346.252,281.329 345.5,282C 351.067,284.1 356.567,283.934 362,281.5C 363.171,282.34 364.338,283.173 365.5,284C 365.043,284.414 364.709,284.914 364.5,285.5C 365.689,286.429 367.022,286.762 368.5,286.5C 368.231,284.571 368.731,282.905 370,281.5C 372.719,282.444 375.552,282.777 378.5,282.5C 378.5,280.5 378.5,278.5 378.5,276.5 Z"/></g>
<g><path style="opacity:1" fill="#fc4c86" d="M 373.5,273.5 C 375.933,273.273 377.599,274.273 378.5,276.5C 378.5,278.5 378.5,280.5 378.5,282.5C 375.552,282.777 372.719,282.444 370,281.5C 368.731,282.905 368.231,284.571 368.5,286.5C 367.022,286.762 365.689,286.429 364.5,285.5C 364.709,284.914 365.043,284.414 365.5,284C 364.338,283.173 363.171,282.34 362,281.5C 356.567,283.934 351.067,284.1 345.5,282C 346.252,281.329 346.586,280.496 346.5,279.5C 347.5,278.167 348.5,276.833 349.5,275.5C 349.973,274.094 350.973,273.427 352.5,273.5C 359.486,272.364 366.486,272.364 373.5,273.5 Z"/></g>
<g><path style="opacity:1" fill="#fd4f80" d="M 456.5,278.5 C 456.5,279.5 456.5,280.5 456.5,281.5C 458.936,281.317 461.103,281.984 463,283.5C 468.457,281.855 474.123,280.855 480,280.5C 481.509,282.919 483.675,283.919 486.5,283.5C 486.5,284.5 486.5,285.5 486.5,286.5C 483.432,286.547 480.432,287.047 477.5,288C 474.921,289.076 473.254,290.909 472.5,293.5C 465.673,293.129 459.006,292.795 452.5,292.5C 453.831,287.793 455.164,283.127 456.5,278.5 Z"/></g>
<g><path style="opacity:0.439" fill="#ffb3c2" d="M 503.5,278.5 C 501.5,281.167 499.167,283.5 496.5,285.5C 497.833,282.167 500.167,279.833 503.5,278.5 Z"/></g>
<g><path style="opacity:1" fill="#fd4f7f" d="M 571.5,286.5 C 569.41,286.45 568.077,287.45 567.5,289.5C 565.955,290.452 564.288,290.785 562.5,290.5C 562.67,291.822 562.337,292.989 561.5,294C 559.939,294.318 558.772,295.151 558,296.5C 557.617,295.944 557.117,295.611 556.5,295.5C 552.909,291.953 548.909,291.619 544.5,294.5C 543.5,293.833 542.5,293.167 541.5,292.5C 538.573,293.801 535.573,294.801 532.5,295.5C 532.5,291.833 532.5,288.167 532.5,284.5C 532.5,283.833 532.5,283.167 532.5,282.5C 538.035,280.683 543.201,281.35 548,284.5C 554.846,283.89 561.513,282.557 568,280.5C 570.265,281.916 571.431,283.916 571.5,286.5 Z"/></g>
<g><path style="opacity:0.965" fill="#f189a5" d="M 575.5,276.5 C 576.917,279.34 576.584,282.007 574.5,284.5C 574.833,281.833 575.167,279.167 575.5,276.5 Z"/></g>
<g><path style="opacity:1" fill="#fd5080" d="M 258.5,294.5 C 252.211,293.628 245.878,293.295 239.5,293.5C 239.5,296.833 239.5,300.167 239.5,303.5C 239.167,303.5 238.833,303.5 238.5,303.5C 238.5,295.833 238.5,288.167 238.5,280.5C 238.5,279.833 238.833,279.5 239.5,279.5C 242.406,279.084 245.239,278.418 248,277.5C 252.434,277.25 255.768,278.917 258,282.5C 258.499,286.486 258.666,290.486 258.5,294.5 Z"/></g>
<g><path style="opacity:1" fill="#f57a9a" d="M 433.5,271.5 C 440.25,274.583 444.917,279.583 447.5,286.5C 446.609,285.89 445.609,285.557 444.5,285.5C 443.543,279.877 440.21,276.543 434.5,275.5C 433.566,274.432 433.232,273.099 433.5,271.5 Z"/></g>
<g><path style="opacity:0.02" fill="#ffd0d0" d="M 237.5,283.5 C 237.666,289.176 237.499,294.843 237,300.5C 236.722,299.584 236.222,298.918 235.5,298.5C 235.5,298.167 235.5,297.833 235.5,297.5C 236.167,292.833 236.833,288.167 237.5,283.5 Z"/></g>
<g><path style="opacity:0.988" fill="#f1869f" d="M 349.5,275.5 C 348.5,276.833 347.5,278.167 346.5,279.5C 343.751,281.582 341.417,283.916 339.5,286.5C 341.442,281.559 344.775,277.892 349.5,275.5 Z"/></g>
<g><path style="opacity:0.824" fill="#f99cae" d="M 231.5,283.5 C 233.277,286.505 234.277,289.838 234.5,293.5C 233.5,291.5 232.5,289.5 231.5,287.5C 231.5,286.167 231.5,284.833 231.5,283.5 Z"/></g>
<g><path style="opacity:0.808" fill="#f9a1b5" d="M 395.5,277.5 C 395.342,280.902 395.676,284.236 396.5,287.5C 396.5,288.5 396.5,289.5 396.5,290.5C 394.828,288.02 393.828,285.187 393.5,282C 393.525,280.124 394.191,278.624 395.5,277.5 Z"/></g>
<g><path style="opacity:1" fill="#f67f93" d="M 574.5,284.5 C 574.141,286.371 573.141,287.871 571.5,289C 565.574,291.935 560.574,295.935 556.5,301C 557.101,302.605 558.101,303.938 559.5,305C 563.23,307.193 566.897,309.36 570.5,311.5C 566.779,311.089 563.112,310.422 559.5,309.5C 558.793,307.866 557.627,306.532 556,305.5C 555.192,301.973 555.359,298.64 556.5,295.5C 557.117,295.611 557.617,295.944 558,296.5C 558.772,295.151 559.939,294.318 561.5,294C 562.337,292.989 562.67,291.822 562.5,290.5C 564.288,290.785 565.955,290.452 567.5,289.5C 568.077,287.45 569.41,286.45 571.5,286.5C 572.5,285.833 573.5,285.167 574.5,284.5 Z"/></g>
<g><path style="opacity:1" fill="#f87c96" d="M 369.5,294.5 C 370.77,300.963 370.77,307.296 369.5,313.5C 369.739,307.435 369.239,301.435 368,295.5C 366.323,291.949 363.49,290.616 359.5,291.5C 362.092,289.621 365.092,288.287 368.5,287.5C 368.448,289.903 368.781,292.236 369.5,294.5 Z"/></g>
<g><path style="opacity:1" fill="#f36c8d" d="M 459.5,271.5 C 459.85,274.453 458.85,276.787 456.5,278.5C 455.164,283.127 453.831,287.793 452.5,292.5C 452.5,293.167 452.167,293.5 451.5,293.5C 451.5,292.5 451.5,291.5 451.5,290.5C 451.724,285.603 452.891,280.936 455,276.5C 455.996,274.34 457.496,272.673 459.5,271.5 Z"/></g>
<g><path style="opacity:0.973" fill="#f78c9f" d="M 339.5,286.5 C 339.5,287.833 339.5,289.167 339.5,290.5C 338.207,291.842 337.374,293.509 337,295.5C 336.501,300.823 336.334,306.156 336.5,311.5C 335.515,307.366 335.182,303.032 335.5,298.5C 335.861,294.085 337.194,290.085 339.5,286.5 Z"/></g>
<g><path style="opacity:1" fill="#f06a87" d="M 260.5,282.5 C 259.74,294.003 259.74,305.336 260.5,316.5C 260.5,317.833 260.5,319.167 260.5,320.5C 259.883,320.389 259.383,320.056 259,319.5C 258.503,317.19 258.337,314.857 258.5,312.5C 258.5,306.5 258.5,300.5 258.5,294.5C 258.666,290.486 258.499,286.486 258,282.5C 255.768,278.917 252.434,277.25 248,277.5C 245.239,278.418 242.406,279.084 239.5,279.5C 240.058,278.21 241.058,277.377 242.5,277C 248.101,275.06 253.434,275.727 258.5,279C 259.823,279.816 260.489,280.983 260.5,282.5 Z"/></g>
<g><path style="opacity:1" fill="#f48599" d="M 427.5,289.5 C 429.153,289.66 430.486,290.326 431.5,291.5C 432.388,294.054 432.721,296.721 432.5,299.5C 431.225,296.03 429.558,292.697 427.5,289.5 Z"/></g>
<g><path style="opacity:0.973" fill="#f18299" d="M 496.5,285.5 C 496.104,288.721 494.771,291.388 492.5,293.5C 492.167,293.5 491.833,293.5 491.5,293.5C 492.169,290.151 493.836,287.484 496.5,285.5 Z"/></g>
<g><path style="opacity:1" fill="#fb577b" d="M 199.5,276.5 C 199.112,280.552 198.445,284.552 197.5,288.5C 198.624,289.914 199.624,291.414 200.5,293C 208.601,292.882 216.434,293.716 224,295.5C 226.8,294.875 229.634,294.208 232.5,293.5C 231.652,291.591 231.318,289.591 231.5,287.5C 232.5,289.5 233.5,291.5 234.5,293.5C 235.234,294.708 235.567,296.041 235.5,297.5C 235.5,297.833 235.5,298.167 235.5,298.5C 235.5,300.167 235.5,301.833 235.5,303.5C 232.335,304.036 229.669,303.203 227.5,301C 220.296,301.081 213.296,300.248 206.5,298.5C 202.925,300.456 199.258,302.122 195.5,303.5C 195.649,302.448 195.483,301.448 195,300.5C 194.764,302.119 193.931,303.119 192.5,303.5C 192.5,301.833 192.5,300.167 192.5,298.5C 192.5,297.833 192.5,297.167 192.5,296.5C 193.924,294.485 194.59,292.152 194.5,289.5C 194.807,284.57 196.473,280.237 199.5,276.5 Z"/></g>
<g><path style="opacity:0.118" fill="#ffbac5" d="M 451.5,290.5 C 451.5,291.5 451.5,292.5 451.5,293.5C 451.631,294.239 451.464,294.906 451,295.5C 449.812,294.437 449.312,293.103 449.5,291.5C 450.167,291.167 450.833,290.833 451.5,290.5 Z"/></g>
<g><path style="opacity:1" fill="#fd5577" d="M 444.5,285.5 C 445.609,285.557 446.609,285.89 447.5,286.5C 448.537,287.93 449.204,289.597 449.5,291.5C 449.312,293.103 449.812,294.437 451,295.5C 451.464,294.906 451.631,294.239 451.5,293.5C 452.167,293.5 452.5,293.167 452.5,292.5C 459.006,292.795 465.673,293.129 472.5,293.5C 471.786,297.246 472.953,298.246 476,296.5C 478.827,296.844 481.327,297.844 483.5,299.5C 482.781,301.764 482.448,304.097 482.5,306.5C 479.77,306.473 477.27,307.14 475,308.5C 473.744,308.352 472.577,308.018 471.5,307.5C 469.565,306.291 467.565,306.458 465.5,308C 464.289,309.113 464.289,310.28 465.5,311.5C 465.167,312.5 464.5,313.167 463.5,313.5C 460.213,309.846 456.046,307.846 451,307.5C 448.244,307.424 447.077,308.757 447.5,311.5C 446.5,311.5 445.5,311.5 444.5,311.5C 444.48,307.487 443.147,306.82 440.5,309.5C 439.749,308.624 439.249,307.624 439,306.5C 438.667,308.167 438.333,309.833 438,311.5C 437.374,309.009 436.541,309.009 435.5,311.5C 434.824,310.398 434.158,309.398 433.5,308.5C 433.81,305.287 433.477,302.287 432.5,299.5C 432.721,296.721 432.388,294.054 431.5,291.5C 432.552,291.649 433.552,291.483 434.5,291C 433.216,289.703 433.383,288.536 435,287.5C 438.04,290.966 441.874,292.3 446.5,291.5C 446.386,289.282 445.72,287.282 444.5,285.5 Z"/></g>
<g><path style="opacity:1" fill="#fd5a7b" d="M 295.5,279.5 C 295.557,280.609 295.89,281.609 296.5,282.5C 296.5,283.5 296.5,284.5 296.5,285.5C 297.5,285.5 298.5,285.5 299.5,285.5C 299.5,286.833 299.5,288.167 299.5,289.5C 300.822,289.67 301.989,289.337 303,288.5C 303.483,289.448 303.649,290.448 303.5,291.5C 309.176,291.666 314.843,291.499 320.5,291C 321.593,289.635 322.926,289.301 324.5,290C 323.391,291.813 324.058,292.646 326.5,292.5C 326.263,291.209 326.596,290.209 327.5,289.5C 328.404,290.209 328.737,291.209 328.5,292.5C 327.205,293.488 325.872,294.488 324.5,295.5C 323.85,295.804 323.183,296.137 322.5,296.5C 321.509,300.445 321.176,304.445 321.5,308.5C 320.778,309.551 319.778,310.218 318.5,310.5C 316.603,309.195 314.269,308.529 311.5,308.5C 306.288,307.396 302.621,309.063 300.5,313.5C 300.5,311.167 300.5,308.833 300.5,306.5C 300.666,301.489 300.499,296.489 300,291.5C 298.293,289.963 296.793,288.296 295.5,286.5C 295.443,285.391 295.11,284.391 294.5,283.5C 294.232,281.901 294.566,280.568 295.5,279.5 Z"/></g>
<g><path style="opacity:1" fill="#fb718b" d="M 527.5,288.5 C 521.229,292.804 515.563,297.804 510.5,303.5C 510.286,301.856 510.62,300.356 511.5,299C 509.018,297.539 509.018,296.039 511.5,294.5C 516.606,291.89 521.94,289.89 527.5,288.5 Z"/></g>
<g><path style="opacity:0.545" fill="#fa9cae" d="M 387.5,289.5 C 389.074,291.102 389.741,293.102 389.5,295.5C 388.599,294.71 387.932,293.71 387.5,292.5C 387.5,291.5 387.5,290.5 387.5,289.5 Z"/></g>
<g><path style="opacity:0.259" fill="#ffb4bf" d="M 194.5,289.5 C 194.59,292.152 193.924,294.485 192.5,296.5C 192.41,293.848 193.076,291.515 194.5,289.5 Z"/></g>
<g><path style="opacity:1" fill="#f67e94" d="M 486.5,286.5 C 482.354,288.204 478.354,290.204 474.5,292.5C 476.667,293.948 479,295.115 481.5,296C 482.823,296.816 483.489,297.983 483.5,299.5C 481.327,297.844 478.827,296.844 476,296.5C 472.953,298.246 471.786,297.246 472.5,293.5C 473.254,290.909 474.921,289.076 477.5,288C 480.432,287.047 483.432,286.547 486.5,286.5 Z"/></g>
<g><path style="opacity:0.996" fill="#f48f9b" d="M 324.5,295.5 C 323.608,299.975 322.608,304.308 321.5,308.5C 321.176,304.445 321.509,300.445 322.5,296.5C 323.183,296.137 323.85,295.804 324.5,295.5 Z"/></g>
<g><path style="opacity:0.118" fill="#ffb2bb" d="M 356.5,294.5 C 355.627,298.768 355.294,303.102 355.5,307.5C 354.355,303.689 354.188,299.689 355,295.5C 355.383,294.944 355.883,294.611 356.5,294.5 Z"/></g>
<g><path style="opacity:0.502" fill="#fdb1bc" d="M 260.5,282.5 C 261.26,293.664 261.26,304.997 260.5,316.5C 259.74,305.336 259.74,294.003 260.5,282.5 Z"/></g>
<g><path style="opacity:1" fill="#fb5876" d="M 292.5,284.5 C 292.5,284.833 292.5,285.167 292.5,285.5C 292.749,297.531 292.416,309.531 291.5,321.5C 291.167,321.5 290.833,321.5 290.5,321.5C 290.82,318.102 290.487,314.768 289.5,311.5C 288.5,310.167 287.5,308.833 286.5,307.5C 284.831,308.671 283.331,310.004 282,311.5C 280.715,311.05 279.548,310.383 278.5,309.5C 276.814,310.857 275.148,312.19 273.5,313.5C 273.5,307.5 273.5,301.5 273.5,295.5C 273.5,292.5 273.5,289.5 273.5,286.5C 275.106,287.8 276.773,289.134 278.5,290.5C 279.086,290.291 279.586,289.957 280,289.5C 281.342,292.794 283.842,294.128 287.5,293.5C 287.351,292.448 287.517,291.448 288,290.5C 289.594,288.474 291.094,286.474 292.5,284.5 Z"/></g>
<g><path style="opacity:1" fill="#fc5d78" d="M 396.5,287.5 C 397.117,287.611 397.617,287.944 398,288.5C 398.333,291.167 398.667,293.833 399,296.5C 399.483,295.552 399.649,294.552 399.5,293.5C 403.936,293.586 408.102,293.919 412,294.5C 412.464,293.906 412.631,293.239 412.5,292.5C 413.49,298.645 413.823,304.978 413.5,311.5C 412.778,311.918 412.278,312.584 412,313.5C 409.859,309.884 406.692,308.217 402.5,308.5C 402.5,309.5 402.5,310.5 402.5,311.5C 401.178,311.67 400.011,311.337 399,310.5C 397.809,315.767 397.309,321.101 397.5,326.5C 396.509,319.687 396.175,312.687 396.5,305.5C 396.5,300.5 396.5,295.5 396.5,290.5C 396.5,289.5 396.5,288.5 396.5,287.5 Z"/></g>
<g><path style="opacity:0.964" fill="#ed667e" d="M 427.5,289.5 C 423.873,286.668 419.873,285.668 415.5,286.5C 414.505,297.321 414.172,308.321 414.5,319.5C 413.527,317.052 413.194,314.385 413.5,311.5C 413.823,304.978 413.49,298.645 412.5,292.5C 412.232,289.881 412.565,287.381 413.5,285C 417.211,284.175 420.878,284.341 424.5,285.5C 426.288,286.283 427.288,287.616 427.5,289.5 Z"/></g>
<g><path style="opacity:1" fill="#fb5974" d="M 387.5,292.5 C 387.932,293.71 388.599,294.71 389.5,295.5C 389.5,302.5 389.5,309.5 389.5,316.5C 389.167,316.5 388.833,316.5 388.5,316.5C 388.662,314.473 388.495,312.473 388,310.5C 385.944,311.202 384.111,310.535 382.5,308.5C 381.201,309.09 380.368,310.09 380,311.5C 378.887,310.289 377.72,310.289 376.5,311.5C 375.808,310.975 375.308,310.308 375,309.5C 374.395,311.481 373.395,311.815 372,310.5C 371.784,312.384 371.117,314.051 370,315.5C 369.536,314.906 369.369,314.239 369.5,313.5C 370.77,307.296 370.77,300.963 369.5,294.5C 370.482,295.141 371.482,295.807 372.5,296.5C 374.167,295.167 375.833,293.833 377.5,292.5C 379.295,293.265 381.128,293.932 383,294.5C 384.3,293.293 385.8,292.626 387.5,292.5 Z"/></g>
<g><path style="opacity:0.016" fill="#fcacb3" d="M 483.5,299.5 C 484.645,301.953 484.312,304.287 482.5,306.5C 482.448,304.097 482.781,301.764 483.5,299.5 Z"/></g>
<g><path style="opacity:1" fill="#fd5a76" d="M 491.5,293.5 C 491.833,293.5 492.167,293.5 492.5,293.5C 492.443,297.133 493.443,297.3 495.5,294C 501.016,293.183 506.35,293.349 511.5,294.5C 509.018,296.039 509.018,297.539 511.5,299C 510.62,300.356 510.286,301.856 510.5,303.5C 510.5,306.167 510.5,308.833 510.5,311.5C 510.5,312.167 510.5,312.833 510.5,313.5C 507.595,312.468 505.762,310.468 505,307.5C 503.676,310.244 501.509,311.577 498.5,311.5C 497.516,306.342 496.683,306.342 496,311.5C 495.333,310.167 494.333,309.167 493,308.5C 492.59,310.668 491.756,312.001 490.5,312.5C 490.846,313.849 491.179,315.183 491.5,316.5C 490.883,316.389 490.383,316.056 490,315.5C 489.092,308.023 489.592,300.69 491.5,293.5 Z"/></g>
<g><path style="opacity:1" fill="#fe5775" d="M 258.5,294.5 C 258.5,300.5 258.5,306.5 258.5,312.5C 257.837,310.958 257.17,309.291 256.5,307.5C 251.23,308.451 245.897,308.785 240.5,308.5C 240.5,309.5 240.5,310.5 240.5,311.5C 239.527,309.052 239.194,306.385 239.5,303.5C 239.5,300.167 239.5,296.833 239.5,293.5C 245.878,293.295 252.211,293.628 258.5,294.5 Z"/></g>
<g><path style="opacity:1" fill="#fb5a75" d="M 339.5,290.5 C 341.345,292.966 343.012,295.633 344.5,298.5C 345.466,296.604 345.799,294.604 345.5,292.5C 347.527,292.338 349.527,292.505 351.5,293C 351.043,293.414 350.709,293.914 350.5,294.5C 352.204,295.823 353.537,295.49 354.5,293.5C 353.674,292.549 353.508,291.549 354,290.5C 355.356,291.38 356.856,291.714 358.5,291.5C 358.068,292.71 357.401,293.71 356.5,294.5C 355.883,294.611 355.383,294.944 355,295.5C 354.188,299.689 354.355,303.689 355.5,307.5C 355.5,308.167 355.5,308.833 355.5,309.5C 355.5,310.167 355.5,310.833 355.5,311.5C 354.732,312.263 354.232,313.263 354,314.5C 353.586,314.043 353.086,313.709 352.5,313.5C 350.827,315.086 348.827,315.753 346.5,315.5C 346.688,317.103 346.188,318.437 345,319.5C 343.803,316.911 342.803,314.244 342,311.5C 341.289,314.679 340.122,317.679 338.5,320.5C 339.046,322.135 339.38,323.801 339.5,325.5C 337.926,323.898 337.259,321.898 337.5,319.5C 337.167,316.833 336.833,314.167 336.5,311.5C 336.334,306.156 336.501,300.823 337,295.5C 337.374,293.509 338.207,291.842 339.5,290.5 Z"/></g>
<g><path style="opacity:0.404" fill="#fdb5ba" d="M 531.5,287.5 C 531.5,297.833 531.5,308.167 531.5,318.5C 530.814,312.766 530.148,306.933 529.5,301C 529.711,296.488 530.378,291.988 531.5,287.5 Z"/></g>
<g><path style="opacity:1" fill="#fc5875" d="M 532.5,284.5 C 532.5,288.167 532.5,291.833 532.5,295.5C 535.573,294.801 538.573,293.801 541.5,292.5C 542.5,293.167 543.5,293.833 544.5,294.5C 548.909,291.619 552.909,291.953 556.5,295.5C 555.359,298.64 555.192,301.973 556,305.5C 557.627,306.532 558.793,307.866 559.5,309.5C 559.53,310.497 559.03,311.164 558,311.5C 556.128,310.932 554.295,310.265 552.5,309.5C 549.167,310.833 545.833,310.833 542.5,309.5C 539.959,312.1 537.459,312.1 535,309.5C 533.443,312.666 532.61,316 532.5,319.5C 532.167,319.5 531.833,319.5 531.5,319.5C 531.5,319.167 531.5,318.833 531.5,318.5C 531.5,308.167 531.5,297.833 531.5,287.5C 531.5,286.833 531.5,286.167 531.5,285.5C 531.5,284.833 531.833,284.5 532.5,284.5 Z"/></g>
<g><path style="opacity:0.498" fill="#f7939c" d="M 272.5,295.5 C 272.833,295.5 273.167,295.5 273.5,295.5C 273.5,301.5 273.5,307.5 273.5,313.5C 272.659,315.379 272.325,317.379 272.5,319.5C 271.5,319.5 270.5,319.5 269.5,319.5C 272.213,311.781 273.213,303.781 272.5,295.5 Z"/></g>
<g><path style="opacity:0.706" fill="#fd98a5" d="M 294.5,283.5 C 295.11,284.391 295.443,285.391 295.5,286.5C 294.522,286.811 293.855,287.478 293.5,288.5C 294.63,295.45 294.797,302.45 294,309.5C 293.924,313.796 293.091,317.796 291.5,321.5C 292.416,309.531 292.749,297.531 292.5,285.5C 293.167,284.833 293.833,284.167 294.5,283.5 Z"/></g>
<g><path style="opacity:0.102" fill="#fcabb1" d="M 432.5,299.5 C 433.477,302.287 433.81,305.287 433.5,308.5C 433.379,311.105 432.379,313.105 430.5,314.5C 432.152,309.659 432.818,304.659 432.5,299.5 Z"/></g>
<g><path style="opacity:0.957" fill="#f28c97" d="M 491.5,293.5 C 489.592,300.69 489.092,308.023 490,315.5C 490.383,316.056 490.883,316.389 491.5,316.5C 491.517,318.565 491.85,320.565 492.5,322.5C 489.175,318.362 487.508,313.528 487.5,308C 487.532,302.693 488.866,297.86 491.5,293.5 Z"/></g>
<g><path style="opacity:1" fill="#fd5e6b" d="M 471.5,307.5 C 469.657,310.564 469.157,313.897 470,317.5C 473.468,321.04 477.635,323.04 482.5,323.5C 482.557,324.609 482.89,325.609 483.5,326.5C 482.883,326.611 482.383,326.944 482,327.5C 478.754,326.061 475.421,324.728 472,323.5C 470.853,324.458 469.853,324.125 469,322.5C 467.066,324.419 467.233,325.919 469.5,327C 466.776,327.27 464.109,327.77 461.5,328.5C 460.269,327.349 460.269,326.183 461.5,325C 458.697,322.606 456.697,323.106 455.5,326.5C 454.03,323.051 452.864,319.384 452,315.5C 451.333,314.833 450.667,314.167 450,313.5C 447.273,316.507 445.106,319.841 443.5,323.5C 442.466,321.447 440.966,319.78 439,318.5C 431.582,320.863 423.749,323.197 415.5,325.5C 415.5,326.5 415.5,327.5 415.5,328.5C 410.5,328.5 405.5,328.5 400.5,328.5C 400.771,330.38 400.104,331.713 398.5,332.5C 397.659,330.621 397.325,328.621 397.5,326.5C 397.309,321.101 397.809,315.767 399,310.5C 400.011,311.337 401.178,311.67 402.5,311.5C 402.5,310.5 402.5,309.5 402.5,308.5C 406.692,308.217 409.859,309.884 412,313.5C 412.278,312.584 412.778,311.918 413.5,311.5C 413.194,314.385 413.527,317.052 414.5,319.5C 421.438,323.034 426.771,321.367 430.5,314.5C 432.379,313.105 433.379,311.105 433.5,308.5C 434.158,309.398 434.824,310.398 435.5,311.5C 436.541,309.009 437.374,309.009 438,311.5C 438.333,309.833 438.667,308.167 439,306.5C 439.249,307.624 439.749,308.624 440.5,309.5C 443.147,306.82 444.48,307.487 444.5,311.5C 445.5,311.5 446.5,311.5 447.5,311.5C 447.077,308.757 448.244,307.424 451,307.5C 456.046,307.846 460.213,309.846 463.5,313.5C 464.5,313.167 465.167,312.5 465.5,311.5C 464.289,310.28 464.289,309.113 465.5,308C 467.565,306.458 469.565,306.291 471.5,307.5 Z"/></g>
<g><path style="opacity:1" fill="#fe5a70" d="M 235.5,303.5 C 236.338,303.842 236.672,304.508 236.5,305.5C 236.818,310.032 236.485,314.366 235.5,318.5C 234.79,316.3 233.624,314.3 232,312.5C 231.527,314.779 230.527,316.779 229,318.5C 228.517,317.552 228.351,316.552 228.5,315.5C 216.51,314.388 204.51,314.388 192.5,315.5C 192.5,312.5 192.5,309.5 192.5,306.5C 192.5,305.5 192.5,304.5 192.5,303.5C 193.931,303.119 194.764,302.119 195,300.5C 195.483,301.448 195.649,302.448 195.5,303.5C 199.258,302.122 202.925,300.456 206.5,298.5C 213.296,300.248 220.296,301.081 227.5,301C 229.669,303.203 232.335,304.036 235.5,303.5 Z"/></g>
<g><path style="opacity:0.165" fill="#fd98aa" d="M 238.5,280.5 C 238.5,288.167 238.5,295.833 238.5,303.5C 238.664,306.187 238.497,308.854 238,311.5C 237.809,309.292 237.309,307.292 236.5,305.5C 236.672,304.508 236.338,303.842 235.5,303.5C 235.5,301.833 235.5,300.167 235.5,298.5C 236.222,298.918 236.722,299.584 237,300.5C 237.499,294.843 237.666,289.176 237.5,283.5C 237.263,282.209 237.596,281.209 238.5,280.5 Z"/></g>
<g><path style="opacity:1" fill="#fd5c6d" d="M 258.5,312.5 C 258.337,314.857 258.503,317.19 259,319.5C 259.383,320.056 259.883,320.389 260.5,320.5C 261.482,321.141 262.482,321.807 263.5,322.5C 265.919,322.086 267.919,321.086 269.5,319.5C 270.5,319.5 271.5,319.5 272.5,319.5C 272.325,317.379 272.659,315.379 273.5,313.5C 275.148,312.19 276.814,310.857 278.5,309.5C 279.548,310.383 280.715,311.05 282,311.5C 283.331,310.004 284.831,308.671 286.5,307.5C 287.5,308.833 288.5,310.167 289.5,311.5C 290.487,314.768 290.82,318.102 290.5,321.5C 290.167,321.5 289.833,321.5 289.5,321.5C 289.719,320.325 289.386,319.325 288.5,318.5C 287.757,319.908 286.923,321.241 286,322.5C 280.507,317.191 275.174,317.525 270,323.5C 268.434,322.939 267.101,323.606 266,325.5C 263.787,324.198 261.454,323.198 259,322.5C 258.105,319.417 257.105,316.417 256,313.5C 254.46,321.406 250.46,323.072 244,318.5C 243.506,320.134 243.34,321.801 243.5,323.5C 242.508,319.596 241.508,315.596 240.5,311.5C 240.5,310.5 240.5,309.5 240.5,308.5C 245.897,308.785 251.23,308.451 256.5,307.5C 257.17,309.291 257.837,310.958 258.5,312.5 Z"/></g>
<g><path style="opacity:1" fill="#f77985" d="M 482.5,306.5 C 479.898,308.81 476.898,310.643 473.5,312C 470.833,314 470.833,316 473.5,318C 476.564,319.859 479.564,321.692 482.5,323.5C 477.635,323.04 473.468,321.04 470,317.5C 469.157,313.897 469.657,310.564 471.5,307.5C 472.577,308.018 473.744,308.352 475,308.5C 477.27,307.14 479.77,306.473 482.5,306.5 Z"/></g>
<g><path style="opacity:0.494" fill="#f8a0a8" d="M 389.5,295.5 C 392.006,302.513 392.006,309.513 389.5,316.5C 389.5,309.5 389.5,302.5 389.5,295.5 Z"/></g>
<g><path style="opacity:0.216" fill="#fea6ad" d="M 415.5,286.5 C 415.333,297.172 415.5,307.839 416,318.5C 416.739,319.574 417.739,320.241 419,320.5C 423.639,319.932 427.472,317.932 430.5,314.5C 426.771,321.367 421.438,323.034 414.5,319.5C 414.172,308.321 414.505,297.321 415.5,286.5 Z"/></g>
<g><path style="opacity:1" fill="#fd6069" d="M 192.5,306.5 C 192.5,309.5 192.5,312.5 192.5,315.5C 204.51,314.388 216.51,314.388 228.5,315.5C 228.351,316.552 228.517,317.552 229,318.5C 230.527,316.779 231.527,314.779 232,312.5C 233.624,314.3 234.79,316.3 235.5,318.5C 235.5,320.167 235.5,321.833 235.5,323.5C 236.5,323.5 237.5,323.5 238.5,323.5C 238.5,324.167 238.5,324.833 238.5,325.5C 237.778,325.918 237.278,326.584 237,327.5C 236,326.167 235,326.167 234,327.5C 233.667,326.833 233.333,326.167 233,325.5C 230.216,328.264 227.05,329.264 223.5,328.5C 222.333,326.959 221,325.625 219.5,324.5C 219.5,323.167 219.5,321.833 219.5,320.5C 216.214,319.793 212.881,319.46 209.5,319.5C 209.5,320.833 209.5,322.167 209.5,323.5C 207.718,324.72 205.718,325.386 203.5,325.5C 203.739,327.467 203.406,329.301 202.5,331C 200.273,331.121 198.44,331.954 197,333.5C 195.53,332.733 194.03,332.067 192.5,331.5C 191.662,331.158 191.328,330.492 191.5,329.5C 191.175,321.648 191.508,313.982 192.5,306.5 Z"/></g>
<g><path style="opacity:1" fill="#fd5d6d" d="M 559.5,309.5 C 563.112,310.422 566.779,311.089 570.5,311.5C 571.647,313.576 572.981,315.576 574.5,317.5C 573.424,318.656 572.424,318.489 571.5,317C 569.5,316.333 567.5,316.333 565.5,317C 562.315,319.313 558.815,321.147 555,322.5C 552.821,321.884 550.988,320.717 549.5,319C 544.792,318.504 540.125,318.838 535.5,320C 534.663,321.011 534.33,322.178 534.5,323.5C 533.833,322.167 533.167,320.833 532.5,319.5C 532.61,316 533.443,312.666 535,309.5C 537.459,312.1 539.959,312.1 542.5,309.5C 545.833,310.833 549.167,310.833 552.5,309.5C 554.295,310.265 556.128,310.932 558,311.5C 559.03,311.164 559.53,310.497 559.5,309.5 Z"/></g>
<g><path style="opacity:1" fill="#fd5e6b" d="M 318.5,310.5 C 317.498,317.203 316.498,323.869 315.5,330.5C 315.752,327.68 315.252,325.014 314,322.5C 312.333,324.833 310.667,327.167 309,329.5C 306.835,328.417 304.835,327.084 303,325.5C 301.779,326.272 300.779,327.272 300,328.5C 299.503,325.854 299.336,323.187 299.5,320.5C 299.448,318.097 299.781,315.764 300.5,313.5C 302.621,309.063 306.288,307.396 311.5,308.5C 314.269,308.529 316.603,309.195 318.5,310.5 Z"/></g>
<g><path style="opacity:0.376" fill="#fca7ae" d="M 192.5,298.5 C 192.5,300.167 192.5,301.833 192.5,303.5C 192.5,304.5 192.5,305.5 192.5,306.5C 191.508,313.982 191.175,321.648 191.5,329.5C 190.834,325.681 190.501,321.681 190.5,317.5C 190.361,310.935 191.028,304.601 192.5,298.5 Z"/></g>
<g><path style="opacity:0.031" fill="#feb9bb" d="M 335.5,298.5 C 335.182,303.032 335.515,307.366 336.5,311.5C 336.833,314.167 337.167,316.833 337.5,319.5C 336.224,317.438 335.39,315.104 335,312.5C 334.185,307.648 334.352,302.981 335.5,298.5 Z"/></g>
<g><path style="opacity:1" fill="#fc616b" d="M 388.5,316.5 C 387.861,318.76 386.694,320.76 385,322.5C 384.506,324.134 384.34,325.801 384.5,327.5C 383.041,327.567 381.708,327.234 380.5,326.5C 380.38,325.414 379.713,324.747 378.5,324.5C 375.231,326.05 372.064,327.717 369,329.5C 362.667,328.833 356.333,328.167 350,327.5C 348.061,327.954 346.228,328.621 344.5,329.5C 343.147,327.817 341.48,326.484 339.5,325.5C 339.38,323.801 339.046,322.135 338.5,320.5C 340.122,317.679 341.289,314.679 342,311.5C 342.803,314.244 343.803,316.911 345,319.5C 346.188,318.437 346.688,317.103 346.5,315.5C 348.827,315.753 350.827,315.086 352.5,313.5C 353.086,313.709 353.586,314.043 354,314.5C 354.232,313.263 354.732,312.263 355.5,311.5C 355.588,315.589 357.588,318.256 361.5,319.5C 365.633,319.358 368.3,317.358 369.5,313.5C 369.369,314.239 369.536,314.906 370,315.5C 371.117,314.051 371.784,312.384 372,310.5C 373.395,311.815 374.395,311.481 375,309.5C 375.308,310.308 375.808,310.975 376.5,311.5C 377.72,310.289 378.887,310.289 380,311.5C 380.368,310.09 381.201,309.09 382.5,308.5C 384.111,310.535 385.944,311.202 388,310.5C 388.495,312.473 388.662,314.473 388.5,316.5 Z"/></g>
<g><path style="opacity:0.929" fill="#f79599" d="M 355.5,309.5 C 356.567,313.337 358.567,316.67 361.5,319.5C 357.588,318.256 355.588,315.589 355.5,311.5C 355.5,310.833 355.5,310.167 355.5,309.5 Z"/></g>
<g><path style="opacity:0.989" fill="#f36e77" d="M 238.5,303.5 C 238.833,303.5 239.167,303.5 239.5,303.5C 239.194,306.385 239.527,309.052 240.5,311.5C 241.508,315.596 242.508,319.596 243.5,323.5C 244.968,327.23 246.635,330.897 248.5,334.5C 244.904,331.643 242.571,327.976 241.5,323.5C 239.236,310.385 238.236,310.385 238.5,323.5C 237.5,323.5 236.5,323.5 235.5,323.5C 235.5,321.833 235.5,320.167 235.5,318.5C 236.485,314.366 236.818,310.032 236.5,305.5C 237.309,307.292 237.809,309.292 238,311.5C 238.497,308.854 238.664,306.187 238.5,303.5 Z"/></g>
<g><path style="opacity:1" fill="#f78e93" d="M 510.5,311.5 C 514.156,314.663 518.156,317.329 522.5,319.5C 517.605,319.053 513.605,317.053 510.5,313.5C 510.5,312.833 510.5,312.167 510.5,311.5 Z"/></g>
<g><path style="opacity:1" fill="#fc6367" d="M 570.5,311.5 C 572.749,312.08 574.415,313.413 575.5,315.5C 575.414,319.857 575.08,324.19 574.5,328.5C 574.027,329.906 573.027,330.573 571.5,330.5C 566.977,329.988 562.477,329.321 558,328.5C 555.967,328.506 554.134,328.839 552.5,329.5C 551.07,329.421 549.736,329.754 548.5,330.5C 547.019,333.293 545.686,336.127 544.5,339C 541.446,339.821 538.446,339.655 535.5,338.5C 534.552,333.565 534.219,328.565 534.5,323.5C 534.33,322.178 534.663,321.011 535.5,320C 540.125,318.838 544.792,318.504 549.5,319C 550.988,320.717 552.821,321.884 555,322.5C 558.815,321.147 562.315,319.313 565.5,317C 567.5,316.333 569.5,316.333 571.5,317C 572.424,318.489 573.424,318.656 574.5,317.5C 572.981,315.576 571.647,313.576 570.5,311.5 Z"/></g>
<g><path style="opacity:1" fill="#fc6169" d="M 510.5,313.5 C 513.605,317.053 517.605,319.053 522.5,319.5C 522.685,321.196 523.519,322.529 525,323.5C 525.498,326.482 525.665,329.482 525.5,332.5C 525.5,333.833 524.833,334.5 523.5,334.5C 515.02,335.109 507.353,333.109 500.5,328.5C 499.754,327.264 499.421,325.93 499.5,324.5C 497.097,324.552 494.764,324.219 492.5,323.5C 492.5,323.167 492.5,322.833 492.5,322.5C 491.85,320.565 491.517,318.565 491.5,316.5C 491.179,315.183 490.846,313.849 490.5,312.5C 491.756,312.001 492.59,310.668 493,308.5C 494.333,309.167 495.333,310.167 496,311.5C 496.683,306.342 497.516,306.342 498.5,311.5C 501.509,311.577 503.676,310.244 505,307.5C 505.762,310.468 507.595,312.468 510.5,313.5 Z"/></g>
<g><path style="opacity:1" fill="#f77980" d="M 219.5,324.5 C 216.426,321.135 213.092,320.801 209.5,323.5C 209.5,322.167 209.5,320.833 209.5,319.5C 212.881,319.46 216.214,319.793 219.5,320.5C 219.5,321.833 219.5,323.167 219.5,324.5 Z"/></g>
<g><path style="opacity:0.62" fill="#fda8ac" d="M 300.5,306.5 C 300.5,308.833 300.5,311.167 300.5,313.5C 299.781,315.764 299.448,318.097 299.5,320.5C 298.515,324.634 298.182,328.968 298.5,333.5C 297.127,324.385 297.794,315.385 300.5,306.5 Z"/></g>
<g><path style="opacity:1" fill="#f7888a" d="M 455.5,326.5 C 456.167,328.5 456.833,330.5 457.5,332.5C 453.2,328.906 450.7,324.239 450,318.5C 445.546,326.124 439.379,331.791 431.5,335.5C 431.343,334.127 431.51,332.793 432,331.5C 434.266,330.044 436.766,329.21 439.5,329C 440.227,327.601 440.727,326.101 441,324.5C 441.671,323.748 442.504,323.414 443.5,323.5C 445.106,319.841 447.273,316.507 450,313.5C 450.667,314.167 451.333,314.833 452,315.5C 452.864,319.384 454.03,323.051 455.5,326.5 Z"/></g>
<g><path style="opacity:0.999" fill="#f48486" d="M 321.5,308.5 C 320.626,317.703 318.793,326.703 316,335.5C 311.279,341.087 306.113,341.754 300.5,337.5C 308.407,340.75 313.407,338.417 315.5,330.5C 316.498,323.869 317.498,317.203 318.5,310.5C 319.778,310.218 320.778,309.551 321.5,308.5 Z"/></g>
<g><path style="opacity:0.761" fill="#f79e9d" d="M 522.5,319.5 C 527.459,323.022 528.459,327.355 525.5,332.5C 525.665,329.482 525.498,326.482 525,323.5C 523.519,322.529 522.685,321.196 522.5,319.5 Z"/></g>
<g><path style="opacity:0.973" fill="#ee8c91" d="M 575.5,315.5 C 578.286,320.019 577.953,324.352 574.5,328.5C 575.08,324.19 575.414,319.857 575.5,315.5 Z"/></g>
<g><path style="opacity:0.961" fill="#fb989b" d="M 260.5,316.5 C 262.446,320.408 265.446,321.408 269.5,319.5C 267.919,321.086 265.919,322.086 263.5,322.5C 262.482,321.807 261.482,321.141 260.5,320.5C 260.5,319.167 260.5,317.833 260.5,316.5 Z"/></g>
<g><path style="opacity:0.431" fill="#fca1a6" d="M 396.5,305.5 C 396.175,312.687 396.509,319.687 397.5,326.5C 397.325,328.621 397.659,330.621 398.5,332.5C 398.833,333.833 399.167,335.167 399.5,336.5C 397.59,335.025 396.424,333.025 396,330.5C 395.177,321.99 395.343,313.656 396.5,305.5 Z"/></g>
<g><path style="opacity:0.957" fill="#f59a9b" d="M 289.5,321.5 C 289.833,321.5 290.167,321.5 290.5,321.5C 290.833,321.5 291.167,321.5 291.5,321.5C 291.598,323.553 290.931,325.22 289.5,326.5C 289.5,324.833 289.5,323.167 289.5,321.5 Z"/></g>
<g><path style="opacity:1" fill="#f6898d" d="M 388.5,316.5 C 388.833,316.5 389.167,316.5 389.5,316.5C 389.163,320.836 387.496,324.503 384.5,327.5C 384.34,325.801 384.506,324.134 385,322.5C 386.694,320.76 387.861,318.76 388.5,316.5 Z"/></g>
<g><path style="opacity:0.918" fill="#f79d9f" d="M 482.5,323.5 C 486.706,325.884 488.039,329.217 486.5,333.5C 486.448,330.654 485.448,328.32 483.5,326.5C 482.89,325.609 482.557,324.609 482.5,323.5 Z"/></g>
<g><path style="opacity:1" fill="#f57473" d="M 209.5,323.5 C 208.78,327.945 206.78,331.612 203.5,334.5C 200.833,334.5 198.167,334.5 195.5,334.5C 193.5,334.5 192.5,333.5 192.5,331.5C 194.03,332.067 195.53,332.733 197,333.5C 198.44,331.954 200.273,331.121 202.5,331C 203.406,329.301 203.739,327.467 203.5,325.5C 205.718,325.386 207.718,324.72 209.5,323.5 Z"/></g>
<g><path style="opacity:1" fill="#fb6763" d="M 299.5,320.5 C 299.336,323.187 299.503,325.854 300,328.5C 300.779,327.272 301.779,326.272 303,325.5C 304.835,327.084 306.835,328.417 309,329.5C 310.667,327.167 312.333,324.833 314,322.5C 315.252,325.014 315.752,327.68 315.5,330.5C 313.407,338.417 308.407,340.75 300.5,337.5C 298.896,336.713 298.229,335.38 298.5,333.5C 298.182,328.968 298.515,324.634 299.5,320.5 Z"/></g>
<g><path style="opacity:1" fill="#fc6463" d="M 289.5,321.5 C 289.5,323.167 289.5,324.833 289.5,326.5C 287.228,328.22 284.728,329.553 282,330.5C 281.506,332.134 281.34,333.801 281.5,335.5C 279.801,335.34 278.134,335.506 276.5,336C 275.284,337.74 273.618,338.74 271.5,339C 266.511,339.499 261.511,339.666 256.5,339.5C 253.151,338.831 250.484,337.164 248.5,334.5C 246.635,330.897 244.968,327.23 243.5,323.5C 243.34,321.801 243.506,320.134 244,318.5C 250.46,323.072 254.46,321.406 256,313.5C 257.105,316.417 258.105,319.417 259,322.5C 261.454,323.198 263.787,324.198 266,325.5C 267.101,323.606 268.434,322.939 270,323.5C 275.174,317.525 280.507,317.191 286,322.5C 286.923,321.241 287.757,319.908 288.5,318.5C 289.386,319.325 289.719,320.325 289.5,321.5 Z"/></g>
<g><path style="opacity:1" fill="#fc6966" d="M 483.5,326.5 C 485.448,328.32 486.448,330.654 486.5,333.5C 484.131,335.501 481.798,337.501 479.5,339.5C 470.735,341.479 463.401,339.145 457.5,332.5C 456.833,330.5 456.167,328.5 455.5,326.5C 456.697,323.106 458.697,322.606 461.5,325C 460.269,326.183 460.269,327.349 461.5,328.5C 464.109,327.77 466.776,327.27 469.5,327C 467.233,325.919 467.066,324.419 469,322.5C 469.853,324.125 470.853,324.458 472,323.5C 475.421,324.728 478.754,326.061 482,327.5C 482.383,326.944 482.883,326.611 483.5,326.5 Z"/></g>
<g><path style="opacity:1" fill="#fd6662" d="M 380.5,326.5 C 378.495,327.254 377.828,328.421 378.5,330C 376.826,331.506 375.826,333.339 375.5,335.5C 374.167,335.5 372.833,335.5 371.5,335.5C 371.5,336.5 371.5,337.5 371.5,338.5C 364.813,339.505 358.146,339.505 351.5,338.5C 349.596,338.262 348.262,337.262 347.5,335.5C 347.545,332.923 346.545,330.923 344.5,329.5C 346.228,328.621 348.061,327.954 350,327.5C 356.333,328.167 362.667,328.833 369,329.5C 372.064,327.717 375.231,326.05 378.5,324.5C 379.713,324.747 380.38,325.414 380.5,326.5 Z"/></g>
<g><path style="opacity:1" fill="#f87d7c" d="M 380.5,326.5 C 381.708,327.234 383.041,327.567 384.5,327.5C 381.709,332.955 377.376,336.622 371.5,338.5C 371.5,337.5 371.5,336.5 371.5,335.5C 372.833,335.5 374.167,335.5 375.5,335.5C 375.826,333.339 376.826,331.506 378.5,330C 377.828,328.421 378.495,327.254 380.5,326.5 Z"/></g>
<g><path style="opacity:0.965" fill="#f99d9c" d="M 552.5,329.5 C 554.134,328.839 555.967,328.506 558,328.5C 562.477,329.321 566.977,329.988 571.5,330.5C 570.551,331.152 569.385,331.486 568,331.5C 562.922,330.136 557.755,329.469 552.5,329.5 Z"/></g>
<g><path style="opacity:1" fill="#fd6562" d="M 443.5,323.5 C 442.504,323.414 441.671,323.748 441,324.5C 440.727,326.101 440.227,327.601 439.5,329C 436.766,329.21 434.266,330.044 432,331.5C 431.51,332.793 431.343,334.127 431.5,335.5C 431.167,335.5 430.833,335.5 430.5,335.5C 427.327,335.401 424.327,336.068 421.5,337.5C 419.675,336.349 417.675,335.682 415.5,335.5C 415.5,336.5 415.5,337.5 415.5,338.5C 410.009,338.85 404.676,338.184 399.5,336.5C 399.167,335.167 398.833,333.833 398.5,332.5C 400.104,331.713 400.771,330.38 400.5,328.5C 405.5,328.5 410.5,328.5 415.5,328.5C 415.5,327.5 415.5,326.5 415.5,325.5C 423.749,323.197 431.582,320.863 439,318.5C 440.966,319.78 442.466,321.447 443.5,323.5 Z"/></g>
<g><path style="opacity:1" fill="#f5847f" d="M 492.5,323.5 C 494.764,324.219 497.097,324.552 499.5,324.5C 499.421,325.93 499.754,327.264 500.5,328.5C 507.353,333.109 515.02,335.109 523.5,334.5C 510.981,337.879 500.648,334.212 492.5,323.5 Z"/></g>
<g><path style="opacity:1" fill="#f4817c" d="M 339.5,325.5 C 341.48,326.484 343.147,327.817 344.5,329.5C 346.545,330.923 347.545,332.923 347.5,335.5C 345.983,335.489 344.816,334.823 344,333.5C 342.223,330.941 340.723,328.274 339.5,325.5 Z"/></g>
<g><path style="opacity:0.651" fill="#ffa7a3" d="M 195.5,334.5 C 198.167,334.5 200.833,334.5 203.5,334.5C 200.956,336.714 198.289,336.714 195.5,334.5 Z"/></g>
<g><path style="opacity:1" fill="#f68b88" d="M 241.5,323.5 C 241.639,330.236 239.306,336.07 234.5,341C 230.495,342.098 226.995,341.265 224,338.5C 222.189,333.921 220.689,329.254 219.5,324.5C 221,325.625 222.333,326.959 223.5,328.5C 223.401,332.65 224.735,336.15 227.5,339C 231.257,340.222 233.924,339.055 235.5,335.5C 236.325,334.614 237.325,334.281 238.5,334.5C 238.5,331.5 238.5,328.5 238.5,325.5C 238.5,324.833 238.5,324.167 238.5,323.5C 238.236,310.385 239.236,310.385 241.5,323.5 Z"/></g>
<g><path style="opacity:1" fill="#fd6560" d="M 238.5,325.5 C 238.5,328.5 238.5,331.5 238.5,334.5C 237.325,334.281 236.325,334.614 235.5,335.5C 233.924,339.055 231.257,340.222 227.5,339C 224.735,336.15 223.401,332.65 223.5,328.5C 227.05,329.264 230.216,328.264 233,325.5C 233.333,326.167 233.667,326.833 234,327.5C 235,326.167 236,326.167 237,327.5C 237.278,326.584 237.778,325.918 238.5,325.5 Z"/></g>
<g><path style="opacity:1" fill="#f88b81" d="M 430.5,335.5 C 422.096,339.79 413.096,341.29 403.5,340C 401.676,339.34 400.343,338.173 399.5,336.5C 404.676,338.184 410.009,338.85 415.5,338.5C 415.5,337.5 415.5,336.5 415.5,335.5C 417.675,335.682 419.675,336.349 421.5,337.5C 424.327,336.068 427.327,335.401 430.5,335.5 Z"/></g>
<g><path style="opacity:1" fill="#f58a86" d="M 531.5,319.5 C 531.833,319.5 532.167,319.5 532.5,319.5C 533.167,320.833 533.833,322.167 534.5,323.5C 534.219,328.565 534.552,333.565 535.5,338.5C 538.446,339.655 541.446,339.821 544.5,339C 545.686,336.127 547.019,333.293 548.5,330.5C 549.736,329.754 551.07,329.421 552.5,329.5C 550.549,333.229 548.216,336.729 545.5,340C 539.262,343.698 534.762,342.198 532,335.5C 531.501,330.177 531.334,324.844 531.5,319.5 Z"/></g>
<g><path style="opacity:0.98" fill="#f59992" d="M 486.5,333.5 C 486.054,337.573 483.72,339.573 479.5,339.5C 481.798,337.501 484.131,335.501 486.5,333.5 Z"/></g>
<g><path style="opacity:1" fill="#f59c92" d="M 351.5,338.5 C 358.146,339.505 364.813,339.505 371.5,338.5C 364.818,342.372 358.151,342.372 351.5,338.5 Z"/></g>
<g><path style="opacity:0.951" fill="#f28f87" d="M 289.5,326.5 C 287.073,332.095 283.073,336.262 277.5,339C 270.385,341.858 263.385,342.025 256.5,339.5C 261.511,339.666 266.511,339.499 271.5,339C 273.618,338.74 275.284,337.74 276.5,336C 278.134,335.506 279.801,335.34 281.5,335.5C 281.34,333.801 281.506,332.134 282,330.5C 284.728,329.553 287.228,328.22 289.5,326.5 Z"/></g>
<g><path style="opacity:0.462" fill="#fca89f" d="M 387.5,386.5 C 387.5,386.833 387.5,387.167 387.5,387.5C 387.167,387.5 386.833,387.5 386.5,387.5C 386.667,374.829 386.5,362.162 386,349.5C 384.644,348.62 383.144,348.286 381.5,348.5C 381.5,349.5 381.5,350.5 381.5,351.5C 380.833,364.833 380.167,378.167 379.5,391.5C 379.176,376.588 379.509,361.755 380.5,347C 382.769,346.242 384.936,346.409 387,347.5C 387.5,360.496 387.667,373.496 387.5,386.5 Z"/></g>
<g><path style="opacity:0.039" fill="#ffccc6" d="M 601.5,372.5 C 608.5,372.5 615.5,372.5 622.5,372.5C 616.021,373.491 609.354,373.824 602.5,373.5C 602.824,380.354 602.491,387.021 601.5,393.5C 601.5,386.5 601.5,379.5 601.5,372.5 Z"/></g>
<g><path style="opacity:1" fill="#fc6b5b" d="M 386.5,387.5 C 390.647,388.325 394.981,388.825 399.5,389C 463.167,389.333 526.833,389.667 590.5,390C 590.833,390.333 591.167,390.667 591.5,391C 526.665,391.167 461.999,391.667 397.5,392.5C 392.238,392.805 387.072,392.471 382,391.5C 381.5,378.171 381.333,364.837 381.5,351.5C 381.5,350.5 381.5,349.5 381.5,348.5C 383.144,348.286 384.644,348.62 386,349.5C 386.5,362.162 386.667,374.829 386.5,387.5 Z"/></g>
<g><path style="opacity:1" fill="#fa6b5f" d="M 595.5,219.5 C 596.167,271.668 596.833,324.002 597.5,376.5C 598.527,375.209 599.527,375.209 600.5,376.5C 600.5,381.833 600.5,387.167 600.5,392.5C 532.833,392.5 465.167,392.5 397.5,392.5C 461.999,391.667 526.665,391.167 591.5,391C 591.167,390.667 590.833,390.333 590.5,390C 526.833,389.667 463.167,389.333 399.5,389C 394.981,388.825 390.647,388.325 386.5,387.5C 386.833,387.5 387.167,387.5 387.5,387.5C 456.5,387.5 525.5,387.5 594.5,387.5C 595.499,332.002 595.832,276.336 595.5,220.5C 595.5,220.167 595.5,219.833 595.5,219.5 Z"/></g>
<g><path style="opacity:0.937" fill="#f28981" d="M 381.5,351.5 C 381.333,364.837 381.5,378.171 382,391.5C 387.072,392.471 392.238,392.805 397.5,392.5C 465.167,392.5 532.833,392.5 600.5,392.5C 600.5,387.167 600.5,381.833 600.5,376.5C 600.232,374.901 600.566,373.568 601.5,372.5C 601.5,379.5 601.5,386.5 601.5,393.5C 528.001,394.666 454.334,394.832 380.5,394C 379.748,393.329 379.414,392.496 379.5,391.5C 380.167,378.167 380.833,364.833 381.5,351.5 Z"/></g>
<g><path style="opacity:0.214" fill="#ffb4af" d="M 593.5,385.5 C 594.338,385.842 594.672,386.508 594.5,387.5C 525.5,387.5 456.5,387.5 387.5,387.5C 387.5,387.167 387.5,386.833 387.5,386.5C 456.335,386.833 525.002,386.499 593.5,385.5 Z"/></g>
</svg>
